<?xml version="1.0" encoding="UTF-8" standalone="no"?>
<svg
   xmlns:dc="http://purl.org/dc/elements/1.1/"
   xmlns:cc="http://creativecommons.org/ns#"
   xmlns:rdf="http://www.w3.org/1999/02/22-rdf-syntax-ns#"
   xmlns:svg="http://www.w3.org/2000/svg"
   xmlns="http://www.w3.org/2000/svg"
   xmlns:sodipodi="http://sodipodi.sourceforge.net/DTD/sodipodi-0.dtd"
   xmlns:inkscape="http://www.inkscape.org/namespaces/inkscape"
   viewBox="0 0 640 512"
   version="1.1"
   id="svg4"
   sodipodi:docname="cog_minus.svg"
   inkscape:version="0.92.3 (2405546, 2018-03-11)">
  <metadata
     id="metadata10">
    <rdf:RDF>
      <cc:Work
         rdf:about="">
        <dc:format>image/svg+xml</dc:format>
        <dc:type
           rdf:resource="http://purl.org/dc/dcmitype/StillImage" />
        <dc:title></dc:title>
      </cc:Work>
    </rdf:RDF>
  </metadata>
  <defs
     id="defs8" />
  <sodipodi:namedview
     pagecolor="#ffffff"
     bordercolor="#666666"
     borderopacity="1"
     objecttolerance="10"
     gridtolerance="10"
     guidetolerance="10"
     inkscape:pageopacity="0"
     inkscape:pageshadow="2"
     inkscape:window-width="1920"
     inkscape:window-height="1132"
     id="namedview6"
     showgrid="false"
     inkscape:zoom="0.23046875"
     inkscape:cx="475.76447"
     inkscape:cy="297.67032"
     inkscape:window-x="0"
     inkscape:window-y="0"
     inkscape:window-maximized="1"
     inkscape:current-layer="svg4"
     inkscape:measure-start="422.644,175.729"
     inkscape:measure-end="526.373,122.305" />
  <path
     d="M 235.64453 10.677734 C 217.29453 10.727734 199.16875 12.777734 181.71875 16.677734 C 176.21875 17.877734 172.31836 22.778906 172.31836 28.378906 L 172.31836 77.578125 C 150.11836 85.478125 129.51953 97.377724 111.51953 112.67773 L 69.019531 88.078125 C 64.119531 85.278125 58.01875 86.178906 54.21875 90.378906 C 29.51875 117.07892 10.619531 149.27852 -0.48046875 184.97852 C -2.1804688 190.37852 0.11953125 196.17852 5.0195312 198.97852 L 47.619141 223.57812 C 43.319141 246.77812 43.319141 270.57734 47.619141 293.77734 L 5.0195312 318.37891 C 0.11953125 321.17891 -2.0804687 326.97891 -0.48046875 332.37891 C 10.619531 367.97891 29.51875 400.17852 54.21875 426.97852 C 58.01875 431.07852 64.219531 432.07734 69.019531 429.27734 L 111.61914 404.67773 C 129.51914 420.07773 150.11797 431.97734 172.41797 439.77734 L 172.41797 488.97852 C 172.41797 494.57852 176.31836 499.47773 181.81836 500.67773 C 218.51836 508.87773 256.11953 508.47773 291.01953 500.67773 C 296.51953 499.47773 300.41797 494.57852 300.41797 488.97852 L 300.41797 439.77734 C 322.61797 431.87734 343.21875 419.97773 361.21875 404.67773 L 403.81836 429.27734 C 408.71836 432.07734 414.81914 431.17852 418.61914 426.97852 C 442.65173 400.99997 461.17012 369.80382 472.37891 335.25391 C 437.05297 335.25387 407.12501 335.25402 259.09766 335.25391 C 251.8731 337.40531 244.23086 338.57812 236.31836 338.57812 C 228.40586 338.57812 220.76557 337.40531 213.54102 335.25391 L 182.84766 335.25391 C 165.17766 335.25391 150.84766 320.92391 150.84766 303.25391 L 150.84766 271.25391 C 150.84766 269.89801 150.9417 268.56541 151.10547 267.25391 C 151.10447 267.24791 151.10432 267.24437 151.10352 267.23438 C 151.02949 266.63827 150.97049 266.03744 150.92969 265.43164 C 150.92419 265.35404 150.91711 265.27722 150.91211 265.19922 C 150.87351 264.55522 150.84766 263.90761 150.84766 263.25391 L 150.84766 231.25391 C 150.84766 230.59951 150.87341 229.95134 150.91211 229.30664 C 150.91691 229.23214 150.92469 229.15798 150.92969 229.08398 C 150.9705 228.47558 151.02912 227.87214 151.10352 227.27344 C 151.10452 227.26644 151.10466 227.26391 151.10547 227.25391 C 150.94176 225.94261 150.84766 224.60941 150.84766 223.25391 L 150.84766 191.25391 C 150.84766 173.58391 165.17766 159.25391 182.84766 159.25391 L 222.84766 159.25391 L 463.63672 159.25586 C 452.46501 133.76587 437.14342 110.48465 418.51953 90.277344 C 414.71953 86.177344 408.51875 85.178516 403.71875 87.978516 L 361.11914 112.57812 C 343.21914 97.178115 322.61836 85.278516 300.31836 77.478516 L 300.31836 28.378906 C 300.31836 22.778906 296.41797 17.877734 290.91797 16.677734 C 272.56797 12.577734 253.99453 10.627734 235.64453 10.677734 z "
     id="path2" />
  <path
     inkscape:connector-curvature="0"
     d="m 607.4298,192.47099 h -384 c -17.67,0 -32,14.33 -32,32 v 32 c 0,17.67 14.33,32 32,32 h 384 c 17.67,0 32,-14.33 32,-32 v -32 c 0,-17.67 -14.33,-32 -32,-32 z"
     id="path2-92"
     style="fill:#ff0000" />
</svg>
