<?xml version="1.0" encoding="UTF-8" standalone="no"?>
<svg
   xmlns:dc="http://purl.org/dc/elements/1.1/"
   xmlns:cc="http://creativecommons.org/ns#"
   xmlns:rdf="http://www.w3.org/1999/02/22-rdf-syntax-ns#"
   xmlns:svg="http://www.w3.org/2000/svg"
   xmlns="http://www.w3.org/2000/svg"
   xmlns:sodipodi="http://sodipodi.sourceforge.net/DTD/sodipodi-0.dtd"
   xmlns:inkscape="http://www.inkscape.org/namespaces/inkscape"
   viewBox="0 0 640 512"
   version="1.1"
   id="svg4"
   sodipodi:docname="cube_plus.svg"
   inkscape:version="0.92.3 (2405546, 2018-03-11)">
  <metadata
     id="metadata10">
    <rdf:RDF>
      <cc:Work
         rdf:about="">
        <dc:format>image/svg+xml</dc:format>
        <dc:type
           rdf:resource="http://purl.org/dc/dcmitype/StillImage" />
        <dc:title></dc:title>
      </cc:Work>
    </rdf:RDF>
  </metadata>
  <defs
     id="defs8" />
  <sodipodi:namedview
     pagecolor="#ffffff"
     bordercolor="#666666"
     borderopacity="1"
     objecttolerance="10"
     gridtolerance="10"
     guidetolerance="10"
     inkscape:pageopacity="0"
     inkscape:pageshadow="2"
     inkscape:window-width="1920"
     inkscape:window-height="1132"
     id="namedview6"
     showgrid="false"
     inkscape:zoom="0.32593203"
     inkscape:cx="-465.64819"
     inkscape:cy="479.54815"
     inkscape:window-x="0"
     inkscape:window-y="0"
     inkscape:window-maximized="1"
     inkscape:current-layer="svg4"
     inkscape:measure-start="422.644,175.729"
     inkscape:measure-end="526.373,122.305" />
  <path
     d="M 254.88672 9.7382812 C 249.17422 9.7257814 243.45 10.750781 238 12.800781 L 30 90.800781 C 11.3 97.800781 -1.0996094 115.80078 -1.0996094 135.80078 L -1.0996094 360.90039 C -1.0996094 379.10039 9.2003902 395.70078 25.400391 403.80078 L 233.40039 507.80078 C 246.90039 514.60078 262.80078 514.60078 276.30078 507.80078 L 327.00781 482.44727 C 326.90367 481.39678 326.84766 480.33174 326.84766 479.25391 L 326.84766 439.25391 L 326.84766 410.92578 L 286.90039 430.90039 L 286.90039 335.25391 L 222.84766 335.25391 L 182.84766 335.25391 C 165.17766 335.25391 150.84766 320.92391 150.84766 303.25391 L 150.84766 271.25391 C 150.84766 269.89801 150.9417 268.56541 151.10547 267.25391 C 151.10447 267.24791 151.10432 267.24437 151.10352 267.23438 C 151.02949 266.63827 150.97049 266.03744 150.92969 265.43164 C 150.92419 265.35404 150.91711 265.27722 150.91211 265.19922 C 150.87351 264.55522 150.84766 263.90761 150.84766 263.25391 L 150.84766 231.25391 C 150.84766 230.59951 150.87341 229.95134 150.91211 229.30664 C 150.91691 229.23214 150.92469 229.15798 150.92969 229.08398 C 150.9705 228.47558 151.02912 227.87214 151.10352 227.27344 C 151.10452 227.26644 151.10466 227.26391 151.10547 227.25391 C 150.94176 225.94261 150.84766 224.60941 150.84766 223.25391 L 150.84766 191.25391 C 150.84766 188.77984 151.13823 186.37544 151.66992 184.0625 L 62.900391 148 L 62.900391 146.90039 L 254.90039 74.900391 L 326.84766 101.88086 L 326.84766 95.253906 L 326.84766 55.253906 L 326.84766 33.582031 L 271.69922 12.900391 C 266.29922 10.800391 260.59922 9.7507812 254.88672 9.7382812 z M 502.84961 109.36133 L 502.84961 159.25781 L 510.80078 159.25781 L 510.80078 135.80078 C 510.80078 126.17127 507.91912 117.03359 502.84961 109.36133 z M 502.84766 335.25391 L 502.84766 387.375 C 507.94631 379.65099 510.80078 370.47214 510.80078 360.90039 L 510.80078 335.25391 L 502.84766 335.25391 z "
     id="path2-3" />
  <path
     inkscape:connector-curvature="0"
     d="M 607.4298,192.47099 H 463.42976 V 48.470992 c 0,-17.67 -14.33,-32 -32,-32 h -32 c -17.67,0 -32,14.33 -32,32 V 192.47099 h -144 c -17.67,0 -32,14.33 -32,32 v 32 c 0,17.67 14.33,32 32,32 h 144 v 144 c 0,17.67 14.33,32 32,32 h 32 c 17.67,0 32,-14.33 32,-32 v -144 H 607.4298 c 17.67,0 32,-14.33 32,-32 v -32 c 0,-17.67 -14.33,-32 -32,-32 z"
     id="path2"
     style="fill:#008000" />
</svg>
