<?xml version="1.0" encoding="UTF-8" standalone="no"?>
<svg
   xmlns:dc="http://purl.org/dc/elements/1.1/"
   xmlns:cc="http://creativecommons.org/ns#"
   xmlns:rdf="http://www.w3.org/1999/02/22-rdf-syntax-ns#"
   xmlns:svg="http://www.w3.org/2000/svg"
   xmlns="http://www.w3.org/2000/svg"
   xmlns:sodipodi="http://sodipodi.sourceforge.net/DTD/sodipodi-0.dtd"
   xmlns:inkscape="http://www.inkscape.org/namespaces/inkscape"
   viewBox="0 0 640 512"
   version="1.1"
   id="svg4"
   sodipodi:docname="cube_minus.svg"
   inkscape:version="0.92.3 (2405546, 2018-03-11)">
  <metadata
     id="metadata10">
    <rdf:RDF>
      <cc:Work
         rdf:about="">
        <dc:format>image/svg+xml</dc:format>
        <dc:type
           rdf:resource="http://purl.org/dc/dcmitype/StillImage" />
        <dc:title></dc:title>
      </cc:Work>
    </rdf:RDF>
  </metadata>
  <defs
     id="defs8" />
  <sodipodi:namedview
     pagecolor="#ffffff"
     bordercolor="#666666"
     borderopacity="1"
     objecttolerance="10"
     gridtolerance="10"
     guidetolerance="10"
     inkscape:pageopacity="0"
     inkscape:pageshadow="2"
     inkscape:window-width="1920"
     inkscape:window-height="1132"
     id="namedview6"
     showgrid="false"
     inkscape:zoom="0.32593203"
     inkscape:cx="638.84913"
     inkscape:cy="290.95203"
     inkscape:window-x="0"
     inkscape:window-y="0"
     inkscape:window-maximized="1"
     inkscape:current-layer="svg4"
     inkscape:measure-start="422.644,175.729"
     inkscape:measure-end="526.373,122.305" />
  <path
     d="M 254.64844 9.9101562 C 248.93594 9.8976563 243.20977 10.922656 237.75977 12.972656 L 29.759766 90.972656 C 11.059766 97.972656 -1.3398437 115.97266 -1.3398438 135.97266 L -1.3398438 361.07227 C -1.3398438 379.27227 8.9601563 395.87266 25.160156 403.97266 L 233.16016 507.97266 C 246.66016 514.77266 262.56055 514.77266 276.06055 507.97266 L 484.06055 403.97266 C 500.36055 395.87266 510.56055 379.17227 510.56055 361.07227 L 510.56055 335.25391 C 483.47445 335.25388 449.98765 335.25391 446.66016 335.25391 L 446.66016 351.07227 L 286.66016 431.07227 L 286.66016 335.25391 C 258.73316 335.25388 294.08037 335.25396 222.84766 335.25391 L 182.84766 335.25391 C 165.17766 335.25391 150.84766 320.92391 150.84766 303.25391 L 150.84766 271.25391 C 150.84766 269.89801 150.9417 268.56541 151.10547 267.25391 C 151.10447 267.24791 151.10432 267.24437 151.10352 267.23438 C 151.02949 266.63827 150.97049 266.03744 150.92969 265.43164 C 150.92419 265.35404 150.91711 265.27722 150.91211 265.19922 C 150.87351 264.55522 150.84766 263.90761 150.84766 263.25391 L 150.84766 231.25391 C 150.84766 230.59951 150.87341 229.95134 150.91211 229.30664 C 150.91691 229.23214 150.92469 229.15798 150.92969 229.08398 C 150.9705 228.47558 151.02912 227.87214 151.10352 227.27344 C 151.10452 227.26644 151.10466 227.26391 151.10547 227.25391 C 150.94176 225.94261 150.84766 224.60941 150.84766 223.25391 L 150.84766 191.25391 C 150.84766 188.86757 151.11763 186.54603 151.61328 184.30859 L 62.660156 148.17188 L 62.660156 147.07227 L 254.66016 75.072266 L 446.66016 147.07227 L 446.66016 148.17188 L 419.375 159.25586 L 510.56055 159.25781 L 510.56055 135.97266 C 510.56055 115.97266 498.16094 98.072266 479.46094 91.072266 L 271.46094 13.072266 C 266.06094 10.972266 260.36094 9.9226562 254.64844 9.9101562 z "
     id="path2" />
  <path
     inkscape:connector-curvature="0"
     d="m 607.4298,192.47099 h -384 c -17.67,0 -32,14.33 -32,32 v 32 c 0,17.67 14.33,32 32,32 h 384 c 17.67,0 32,-14.33 32,-32 v -32 c 0,-17.67 -14.33,-32 -32,-32 z"
     id="path2-92"
     style="fill:#ff0000" />
</svg>
