<?xml version="1.0" encoding="UTF-8" standalone="no"?>
<svg
   xmlns:dc="http://purl.org/dc/elements/1.1/"
   xmlns:cc="http://creativecommons.org/ns#"
   xmlns:rdf="http://www.w3.org/1999/02/22-rdf-syntax-ns#"
   xmlns:svg="http://www.w3.org/2000/svg"
   xmlns="http://www.w3.org/2000/svg"
   xmlns:sodipodi="http://sodipodi.sourceforge.net/DTD/sodipodi-0.dtd"
   xmlns:inkscape="http://www.inkscape.org/namespaces/inkscape"
   viewBox="0 0 640 512"
   version="1.1"
   id="svg4"
   sodipodi:docname="cubes_pen.svg"
   inkscape:version="0.92.3 (2405546, 2018-03-11)">
  <metadata
     id="metadata10">
    <rdf:RDF>
      <cc:Work
         rdf:about="">
        <dc:format>image/svg+xml</dc:format>
        <dc:type
           rdf:resource="http://purl.org/dc/dcmitype/StillImage" />
        <dc:title></dc:title>
      </cc:Work>
    </rdf:RDF>
  </metadata>
  <defs
     id="defs8" />
  <sodipodi:namedview
     pagecolor="#ffffff"
     bordercolor="#666666"
     borderopacity="1"
     objecttolerance="10"
     gridtolerance="10"
     guidetolerance="10"
     inkscape:pageopacity="0"
     inkscape:pageshadow="2"
     inkscape:window-width="1920"
     inkscape:window-height="1132"
     id="namedview6"
     showgrid="false"
     inkscape:zoom="0.46093749"
     inkscape:cx="443.85567"
     inkscape:cy="-42.149824"
     inkscape:window-x="0"
     inkscape:window-y="0"
     inkscape:window-maximized="1"
     inkscape:current-layer="svg4"
     inkscape:measure-start="422.644,175.729"
     inkscape:measure-end="526.373,122.305" />
  <path
     d="M 255.31641 9.8183594 C 251.02891 9.8183594 246.72891 10.594531 242.62891 12.144531 L 142.62891 49.644531 C 128.52891 54.944531 119.22852 68.34375 119.22852 83.34375 L 119.22852 191.84375 L 22.628906 228.04297 C 8.6289062 233.34297 -0.671875 246.74414 -0.671875 261.74414 L -0.671875 371.84375 C -0.671875 385.44375 7.0285156 397.94297 19.228516 404.04297 L 119.22852 454.04297 C 129.32852 459.14297 141.32773 459.14297 151.42773 454.04297 L 238.63672 410.39648 C 240.39318 366.95874 236.65462 327.37865 245.37109 279.88281 L 317.76953 207.49023 L 272.32812 224.54297 L 272.32812 156.34375 L 357.32812 119.34375 L 357.32812 167.93359 L 391.32812 133.93555 L 391.32812 83.34375 C 391.32812 68.34375 382.02773 54.944531 367.92773 49.644531 L 267.92773 12.144531 C 263.87773 10.594531 259.60391 9.8183594 255.31641 9.8183594 z M 255.32812 43.744141 L 357.32812 81.943359 L 357.32812 82.542969 L 255.32812 123.94336 L 153.32812 82.542969 L 153.32812 81.943359 L 255.32812 43.744141 z M 135.32812 222.24414 L 237.32812 260.44336 L 237.32812 261.04297 L 135.32812 302.44336 L 33.328125 261.04297 L 33.328125 260.44336 L 135.32812 222.24414 z M 237.32812 297.64453 L 237.32812 373.04297 L 152.32812 415.54297 L 152.32812 336.44336 L 237.32812 297.64453 z M 511.32812 353.61719 L 430.37695 434.56836 L 491.42773 404.04297 C 503.62773 397.94297 511.32812 385.44375 511.32812 371.84375 L 511.32812 353.61719 z M 396.20898 451.65234 C 383.44202 452.75975 371.26227 453.52318 359.35938 454.10352 C 369.43238 459.13847 381.3708 459.12122 391.42773 454.04297 L 396.20898 451.65234 z "
     id="path2" />
  <path
     inkscape:connector-curvature="0"
     d="m 482.85963,127.25354 89.83868,89.8387 -195.08092,195.0809 -80.09832,8.84211 c -10.72282,1.18597 -19.78248,-7.88071 -18.58949,-18.60352 l 8.91228,-80.15447 z m 145.40365,-13.37545 -42.1825,-42.182496 c -13.1579,-13.157908 -34.49827,-13.157908 -47.65618,0 l -39.68425,39.684246 89.83868,89.8387 39.68425,-39.68426 c 13.15791,-13.16492 13.15791,-34.49828 0,-47.65619 z"
     id="path2-6-2"
     style="stroke-width:0.70175511;fill:#0000ff" />
</svg>
