<?xml version="1.0" encoding="UTF-8" standalone="no"?>
<svg
   xmlns:dc="http://purl.org/dc/elements/1.1/"
   xmlns:cc="http://creativecommons.org/ns#"
   xmlns:rdf="http://www.w3.org/1999/02/22-rdf-syntax-ns#"
   xmlns:svg="http://www.w3.org/2000/svg"
   xmlns="http://www.w3.org/2000/svg"
   xmlns:sodipodi="http://sodipodi.sourceforge.net/DTD/sodipodi-0.dtd"
   xmlns:inkscape="http://www.inkscape.org/namespaces/inkscape"
   viewBox="0 0 640 512"
   version="1.1"
   id="svg4"
   sodipodi:docname="cubes_minus.svg"
   inkscape:version="0.92.3 (2405546, 2018-03-11)">
  <metadata
     id="metadata10">
    <rdf:RDF>
      <cc:Work
         rdf:about="">
        <dc:format>image/svg+xml</dc:format>
        <dc:type
           rdf:resource="http://purl.org/dc/dcmitype/StillImage" />
        <dc:title></dc:title>
      </cc:Work>
    </rdf:RDF>
  </metadata>
  <defs
     id="defs8" />
  <sodipodi:namedview
     pagecolor="#ffffff"
     bordercolor="#666666"
     borderopacity="1"
     objecttolerance="10"
     gridtolerance="10"
     guidetolerance="10"
     inkscape:pageopacity="0"
     inkscape:pageshadow="2"
     inkscape:window-width="1920"
     inkscape:window-height="1132"
     id="namedview6"
     showgrid="false"
     inkscape:zoom="0.32593203"
     inkscape:cx="179.96176"
     inkscape:cy="-111.65739"
     inkscape:window-x="0"
     inkscape:window-y="0"
     inkscape:window-maximized="1"
     inkscape:current-layer="svg4"
     inkscape:measure-start="422.644,175.729"
     inkscape:measure-end="526.373,122.305" />
  <path
     d="M 255.64844 3.7714844 C 251.36094 3.7714844 247.06094 4.5457031 242.96094 6.0957031 L 142.96094 43.595703 C 128.86094 48.895703 119.56055 62.296875 119.56055 77.296875 L 119.56055 185.79688 L 22.960938 221.99609 C 8.9609375 227.29609 -0.33984375 240.69727 -0.33984375 255.69727 L -0.33984375 365.79688 C -0.33984375 379.39688 7.3605469 391.89609 19.560547 397.99609 L 119.56055 447.99609 C 129.66055 453.09609 141.66172 453.09609 151.76172 447.99609 L 255.66016 395.99609 L 359.56055 447.99609 C 369.66051 453.09609 381.66172 453.09609 391.76172 447.99609 L 491.76172 397.99609 C 503.96172 391.89609 511.66016 379.39687 511.66016 365.79688 L 511.66016 335.25391 C 496.9414 335.25389 484.289 335.25391 477.66016 335.25391 L 477.66016 366.99609 L 392.66016 409.49609 L 392.66016 335.25391 C 397.0241 335.25391 382.1323 335.25402 237.66016 335.25391 L 237.66016 366.99609 L 152.66016 409.49609 L 152.66016 330.39648 L 160.97656 326.59961 C 154.74632 320.76056 150.84766 312.46416 150.84766 303.25391 L 150.84766 290.23242 L 135.66016 296.39648 L 33.660156 254.99609 L 33.660156 254.39648 L 135.66016 216.19727 L 150.84766 221.88477 L 150.84766 191.25391 C 150.84766 173.58391 165.17766 159.25391 182.84766 159.25391 L 222.84766 159.25391 L 272.66016 159.25391 L 272.66016 150.29688 L 357.66016 113.29688 L 357.66016 159.25586 L 391.66016 159.25586 L 391.66016 77.296875 C 391.66016 62.296875 382.36172 48.895703 368.26172 43.595703 L 268.26172 6.0957031 C 264.21172 4.5457031 259.93594 3.7714844 255.64844 3.7714844 z M 255.66016 37.697266 L 357.66016 75.896484 L 357.66016 76.496094 L 255.66016 117.89648 L 153.66016 76.496094 L 153.66016 75.896484 L 255.66016 37.697266 z "
     id="path2-8" />
  <path
     inkscape:connector-curvature="0"
     d="m 607.4298,192.47099 h -384 c -17.67,0 -32,14.33 -32,32 v 32 c 0,17.67 14.33,32 32,32 h 384 c 17.67,0 32,-14.33 32,-32 v -32 c 0,-17.67 -14.33,-32 -32,-32 z"
     id="path2-92"
     style="fill:#ff0000" />
</svg>
