<?xml version="1.0" encoding="UTF-8" standalone="no"?>
<svg
   xmlns:dc="http://purl.org/dc/elements/1.1/"
   xmlns:cc="http://creativecommons.org/ns#"
   xmlns:rdf="http://www.w3.org/1999/02/22-rdf-syntax-ns#"
   xmlns:svg="http://www.w3.org/2000/svg"
   xmlns="http://www.w3.org/2000/svg"
   xmlns:sodipodi="http://sodipodi.sourceforge.net/DTD/sodipodi-0.dtd"
   xmlns:inkscape="http://www.inkscape.org/namespaces/inkscape"
   viewBox="0 0 640 512"
   version="1.1"
   id="svg4"
   sodipodi:docname="film-minus.svg"
   width="640"
   height="512"
   inkscape:version="0.92.3 (2405546, 2018-03-11)">
  <metadata
     id="metadata10">
    <rdf:RDF>
      <cc:Work
         rdf:about="">
        <dc:format>image/svg+xml</dc:format>
        <dc:type
           rdf:resource="http://purl.org/dc/dcmitype/StillImage" />
        <dc:title></dc:title>
      </cc:Work>
    </rdf:RDF>
  </metadata>
  <defs
     id="defs8" />
  <sodipodi:namedview
     pagecolor="#ffffff"
     bordercolor="#666666"
     borderopacity="1"
     objecttolerance="10"
     gridtolerance="10"
     guidetolerance="10"
     inkscape:pageopacity="0"
     inkscape:pageshadow="2"
     inkscape:window-width="1920"
     inkscape:window-height="1124"
     id="namedview6"
     showgrid="false"
     width="1"
     scale-x="512"
     units="px"
     inkscape:zoom="0.65186406"
     inkscape:cx="447.33573"
     inkscape:cy="241.74872"
     inkscape:window-x="0"
     inkscape:window-y="0"
     inkscape:window-maximized="1"
     inkscape:current-layer="svg4" />
  <path
     d="M 22 54 C 8.7 54 -2 64.7 -2 78 L -2 414 C -2 427.3 8.7 438 22 438 L 30 438 L 30 418 C 30 411.4 35.4 406 42 406 L 82 406 C 88.6 406 94 411.4 94 418 L 94 438 L 414 438 L 414 418 C 414 411.4 419.4 406 426 406 L 466 406 C 472.6 406 478 411.4 478 418 L 478 438 L 486 438 C 499.3 438 510 427.3 510 414 L 510 315.0957 L 503.625 315.0957 L 475.78711 315.0957 C 477.17437 317.0528 478 319.43237 478 322 L 478 362 C 478 368.6 472.6 374 466 374 L 426 374 C 419.4 374 414 368.6 414 362 L 414 322 C 414 319.43237 414.82563 317.0528 416.21289 315.0957 L 366 315.0957 L 366 378 C 366 384.6 360.6 390 354 390 L 154 390 C 147.4 390 142 384.6 142 378 L 142 282 C 142 276.37507 145.92726 271.63328 151.17188 270.35156 L 151.17188 221.64844 C 145.92726 220.36672 142 215.62493 142 210 L 142 114 C 142 107.4 147.4 102 154 102 L 354 102 C 360.6 102 366 107.4 366 114 L 366 139.17188 L 414 139.17188 L 414 130 C 414 123.40004 419.4 118 426 118 L 466 118 C 472.6 118 478 123.40004 478 130 L 478 139.17188 L 503.625 139.17188 L 510 139.17188 L 510 78 C 510 64.7 499.3 54 486 54 L 478 54 L 478 74 C 478 80.6 472.6 86 466 86 L 426 86 C 419.4 86 414 80.6 414 74 L 414 54 L 94 54 L 94 74 C 94 80.6 88.6 86 82 86 L 42 86 C 35.4 86 30 80.6 30 74 L 30 54 L 22 54 z M 42 118 L 82 118 C 88.6 118 94 123.40004 94 130 L 94 170 C 94 176.6 88.6 182 82 182 L 42 182 C 35.4 182 30 176.6 30 170 L 30 130 C 30 123.40004 35.4 118 42 118 z M 42 214 L 82 214 C 88.6 214 94 219.4 94 226 L 94 266 C 94 272.6 88.6 278 82 278 L 42 278 C 35.4 278 30 272.6 30 266 L 30 226 C 30 219.4 35.4 214 42 214 z M 42 310 L 82 310 C 88.6 310 94 315.4 94 322 L 94 362 C 94 368.6 88.6 374 82 374 L 42 374 C 35.4 374 30 368.6 30 362 L 30 322 C 30 315.4 35.4 310 42 310 z "
     id="path2-5" />
  <path
     inkscape:connector-curvature="0"
     d="m 606.44068,178.37288 h -384 c -17.67,0 -32,14.33 -32,32 v 32 c 0,17.67 14.33,32 32,32 h 384 c 17.67,0 32,-14.33 32,-32 v -32 c 0,-17.67 -14.33,-32 -32,-32 z"
     id="path2-92"
     style="fill:#ff0000" />
</svg>
