<?xml version="1.0" encoding="UTF-8" standalone="no"?>
<svg
   xmlns:dc="http://purl.org/dc/elements/1.1/"
   xmlns:cc="http://creativecommons.org/ns#"
   xmlns:rdf="http://www.w3.org/1999/02/22-rdf-syntax-ns#"
   xmlns:svg="http://www.w3.org/2000/svg"
   xmlns="http://www.w3.org/2000/svg"
   xmlns:sodipodi="http://sodipodi.sourceforge.net/DTD/sodipodi-0.dtd"
   xmlns:inkscape="http://www.inkscape.org/namespaces/inkscape"
   viewBox="0 0 640 512"
   version="1.1"
   id="svg4"
   sodipodi:docname="film-plus.svg"
   width="640"
   height="512"
   inkscape:version="0.92.3 (2405546, 2018-03-11)">
  <metadata
     id="metadata10">
    <rdf:RDF>
      <cc:Work
         rdf:about="">
        <dc:format>image/svg+xml</dc:format>
        <dc:type
           rdf:resource="http://purl.org/dc/dcmitype/StillImage" />
        <dc:title></dc:title>
      </cc:Work>
    </rdf:RDF>
  </metadata>
  <defs
     id="defs8" />
  <sodipodi:namedview
     pagecolor="#ffffff"
     bordercolor="#666666"
     borderopacity="1"
     objecttolerance="10"
     gridtolerance="10"
     guidetolerance="10"
     inkscape:pageopacity="0"
     inkscape:pageshadow="2"
     inkscape:window-width="1920"
     inkscape:window-height="1124"
     id="namedview6"
     showgrid="false"
     width="1"
     scale-x="512"
     units="px"
     inkscape:zoom="0.4609375"
     inkscape:cx="628.61878"
     inkscape:cy="-150.3316"
     inkscape:window-x="0"
     inkscape:window-y="0"
     inkscape:window-maximized="1"
     inkscape:current-layer="svg4" />
  <path
     d="M 22,54 C 8.7,54 -2,64.7 -2,78 v 336 c 0,13.3 10.7,24 24,24 h 8 v -20 c 0,-6.6 5.4,-12 12,-12 h 40 c 6.6,0 12,5.4 12,12 v 20 H 322.86914 V 390 H 154 c -6.6,0 -12,-5.4 -12,-12 v -96 c 0,-3.6937 1.69339,-7.00906 4.33984,-9.21484 V 219.21484 C 143.69339,217.00906 142,213.6937 142,210 v -96 c 0,-6.6 5.4,-12 12,-12 H 322.86914 V 54 H 94 v 20 c 0,6.6 -5.4,12 -12,12 H 42 C 35.4,86 30,80.6 30,74 V 54 Z m 476.79297,3.673828 V 137.35938 H 510 V 78 c 0,-8.588019 -4.46509,-16.087053 -11.20703,-20.326172 z M 42,118 h 40 c 6.6,0 12,5.4 12,12 v 40 c 0,6.6 -5.4,12 -12,12 H 42 c -6.6,0 -12,-5.4 -12,-12 v -40 c 0,-6.6 5.4,-12 12,-12 z m 0,96 h 40 c 6.6,0 12,5.4 12,12 v 40 c 0,6.6 -5.4,12 -12,12 H 42 c -6.6,0 -12,-5.4 -12,-12 v -40 c 0,-6.6 5.4,-12 12,-12 z m 0,96 h 40 c 6.6,0 12,5.4 12,12 v 40 c 0,6.6 -5.4,12 -12,12 H 42 c -6.6,0 -12,-5.4 -12,-12 v -40 c 0,-6.6 5.4,-12 12,-12 z m 456.79297,3.2832 V 434.32422 C 505.53458,430.08503 510,422.58777 510,414 V 313.2832 Z"
     id="path2"
     inkscape:connector-curvature="0" />
  <path
     inkscape:connector-curvature="0"
     d="M 606.00004,178 H 462 V 34 C 462,16.33 447.67,2 430,2 H 398 C 380.33,2 366,16.33 366,34 V 178 H 222 c -17.67,0 -32,14.33 -32,32 v 32 c 0,17.67 14.33,32 32,32 h 144 v 143.99998 c 0,17.67 14.33,32 32,32 h 32 c 17.67,0 32,-14.33 32,-32 V 274 h 144.00004 c 17.67,0 32,-14.33 32,-32 v -32 c 0,-17.67 -14.33,-32 -32,-32 z"
     id="path2-6"
     style="fill:#008000" />
</svg>
