<svg xmlns="http://www.w3.org/2000/svg" viewBox="0 0 512 512"><!--!Font Awesome Free 6.5.2 by @fontawesome - https://fontawesome.com License - https://fontawesome.com/license/free Copyright 2024 Fonticons, Inc.--><path d="M496 448h-16V304a16 16 0 0 0 -16-16h-48a16 16 0 0 0 -14.3 8.8l-16 32A16 16 0 0 0 400 352h16v96h-16a16 16 0 0 0 -16 16v32a16 16 0 0 0 16 16h96a16 16 0 0 0 16-16v-32a16 16 0 0 0 -16-16zM336 64h-67a16 16 0 0 0 -13.1 6.9l-79.9 115-79.9-115A16 16 0 0 0 83 64H16A16 16 0 0 0 0 80v48a16 16 0 0 0 16 16h33.5l77.8 112-77.8 112H16a16 16 0 0 0 -16 16v48a16 16 0 0 0 16 16h67a16 16 0 0 0 13.1-6.9l79.9-115 79.9 115A16 16 0 0 0 269 448h67a16 16 0 0 0 16-16v-48a16 16 0 0 0 -16-16h-33.5l-77.8-112 77.8-112H336a16 16 0 0 0 16-16V80a16 16 0 0 0 -16-16z"/></svg>