<?xml version="1.0" encoding="UTF-8" standalone="no"?>
<svg
   xmlns:dc="http://purl.org/dc/elements/1.1/"
   xmlns:cc="http://creativecommons.org/ns#"
   xmlns:rdf="http://www.w3.org/1999/02/22-rdf-syntax-ns#"
   xmlns:svg="http://www.w3.org/2000/svg"
   xmlns="http://www.w3.org/2000/svg"
   xmlns:sodipodi="http://sodipodi.sourceforge.net/DTD/sodipodi-0.dtd"
   xmlns:inkscape="http://www.inkscape.org/namespaces/inkscape"
   viewBox="0 0 656.42358 512"
   version="1.1"
   id="svg4"
   sodipodi:docname="map-signs-minus.svg"
   inkscape:version="0.92.3 (2405546, 2018-03-11)"
   width="656.42358"
   height="512">
  <metadata
     id="metadata10">
    <rdf:RDF>
      <cc:Work
         rdf:about="">
        <dc:format>image/svg+xml</dc:format>
        <dc:type
           rdf:resource="http://purl.org/dc/dcmitype/StillImage" />
        <dc:title></dc:title>
      </cc:Work>
    </rdf:RDF>
  </metadata>
  <defs
     id="defs8" />
  <sodipodi:namedview
     pagecolor="#ffffff"
     bordercolor="#666666"
     borderopacity="1"
     objecttolerance="10"
     gridtolerance="10"
     guidetolerance="10"
     inkscape:pageopacity="0"
     inkscape:pageshadow="2"
     inkscape:window-width="1920"
     inkscape:window-height="1124"
     id="namedview6"
     showgrid="false"
     inkscape:zoom="0.32593203"
     inkscape:cx="513.14026"
     inkscape:cy="236.17827"
     inkscape:window-x="0"
     inkscape:window-y="0"
     inkscape:window-maximized="1"
     inkscape:current-layer="svg4" />
  <path
     d="m 239.99805,0 c -8.84,0 -16,7.16 -16,16 V 32 H 55.998047 c -13.25,0 -24,10.75 -24,24 v 80 c 0,13.25 10.75,24 24,24 H 187.55664 c 2.53884,-0.63278 5.21324,-0.97852 8,-0.97852 H 339.44336 449.2168 c 5.54508,-1.40296 10.66156,-4.27779 14.78125,-8.39062 l 43.31055,-43.31055 c 6.25,-6.26 6.25,-16.380857 0,-22.630857 L 463.99805,41.369141 C 457.99805,35.369141 449.85719,32 441.36719,32 H 287.99805 V 16 c 0,-8.84 -7.16,-16 -16,-16 z M 70.628906,224 c -8.49,0 -16.620859,3.36914 -22.630859,9.36914 L 4.6875,276.68945 c -6.25,6.25 -6.25,16.38086 0,22.63086 l 43.310547,43.31055 c 6,6 14.140859,9.36914 22.630859,9.36914 H 455.99805 c 10.83459,0 19.99392,-7.1896 22.97461,-17.05469 H 339.44336 195.55664 c -15.88985,0 -32.64257,-12.14852 -32.64257,-32.64062 V 224 Z M 223.99805,384 v 112 c 0,8.84 7.16,16 16,16 h 32 c 8.84,0 16,-7.16 16,-16 V 384 Z"
     id="path2"
     inkscape:connector-curvature="0" />
  <path
     inkscape:connector-curvature="0"
     d="m 624.4236,196.87803 h -384 c -17.67,0 -32,14.33 -32,32 v 32 c 0,17.67 14.33,31.99997 32,31.99997 h 384 c 17.67,0 32,-14.32997 32,-31.99997 v -32 c 0,-17.67 -14.33,-32 -32,-32 z"
     id="path2-92"
     style="fill:#ff0000" />
</svg>
