<?xml version="1.0" encoding="UTF-8" standalone="no"?>
<svg
   xmlns:dc="http://purl.org/dc/elements/1.1/"
   xmlns:cc="http://creativecommons.org/ns#"
   xmlns:rdf="http://www.w3.org/1999/02/22-rdf-syntax-ns#"
   xmlns:svg="http://www.w3.org/2000/svg"
   xmlns="http://www.w3.org/2000/svg"
   xmlns:sodipodi="http://sodipodi.sourceforge.net/DTD/sodipodi-0.dtd"
   xmlns:inkscape="http://www.inkscape.org/namespaces/inkscape"
   viewBox="0 0 577.61523 512"
   version="1.1"
   id="svg4"
   sodipodi:docname="database-import.svg"
   inkscape:version="0.92.3 (2405546, 2018-03-11)"
   inkscape:export-filename="/home/manuelma/Desktop/import.png"
   inkscape:export-xdpi="38.959999"
   inkscape:export-ydpi="38.959999"
   width="577.61523"
   height="512">
  <metadata
     id="metadata10">
    <rdf:RDF>
      <cc:Work
         rdf:about="">
        <dc:format>image/svg+xml</dc:format>
        <dc:type
           rdf:resource="http://purl.org/dc/dcmitype/StillImage" />
        <dc:title />
      </cc:Work>
    </rdf:RDF>
  </metadata>
  <defs
     id="defs8" />
  <sodipodi:namedview
     pagecolor="#ffffff"
     bordercolor="#666666"
     borderopacity="1"
     objecttolerance="10"
     gridtolerance="10"
     guidetolerance="10"
     inkscape:pageopacity="0"
     inkscape:pageshadow="2"
     inkscape:window-width="960"
     inkscape:window-height="1124"
     id="namedview6"
     showgrid="false"
     inkscape:zoom="0.46093752"
     inkscape:cx="-37.675722"
     inkscape:cy="162.89837"
     inkscape:window-x="960"
     inkscape:window-y="0"
     inkscape:window-maximized="0"
     inkscape:current-layer="svg4" />
  <path
     style="stroke-width:0.91662079"
     d="M 389.41211,0 C 285.50788,0 201.20899,32.856578 201.20899,73.142578 v 45.714842 c 0,40.286 84.29889,73.14258 188.20312,73.14258 103.90423,0 188.20313,-32.85658 188.20313,-73.14258 V 73.142578 C 577.61524,32.856578 493.31634,0 389.41211,0 Z M 201.20899,176 V 291.63281 H 256 v -65.19922 c 0,-9.83125 8.17772,-16.25967 16.57032,-16.03515 3.81482,0.10205 7.67382,1.57812 10.83007,4.73437 l 95.59961,96.5 c 6.6,6.7 6.6,17.4 0,24 l -95.69921,96.40039 c -10.1,10.1 -27.4004,3.00121 -27.4004,-11.29882 v -65.10157 h -54.6914 v 83.22461 c 0,40.286 84.29889,73.14258 188.20312,73.14258 103.90423,0 188.20313,-32.85658 188.20313,-73.14258 V 176 c -4.09558,3.19106 -8.29973,6.20388 -12.58594,9.07617 -42.10059,26.88996 -108.95502,39.4961 -175.61719,39.4961 -18.26408,0 -36.54156,-0.95038 -54.32226,-2.87696 C 287.09016,213.24684 240.68729,197.05134 201.20899,176 Z m 0,179.63281 v -64 H 16 c -8.8000004,0 -16.000000099999997,7.2 -16,16 v 32 c 0,8.8 7.1999997,16 16,16 z"
     id="path2-5"
     inkscape:connector-curvature="0" />
</svg>
