<?xml version="1.0" encoding="UTF-8" standalone="no"?>
<svg
   viewBox="0 0 493.13517 707.90626"
   version="1.1"
   id="svg4"
   sodipodi:docname="database-export.svg"
   width="493.13516"
   height="707.90625"
   inkscape:version="1.1.2 (76b9e6a115, 2022-02-25)"
   xmlns:inkscape="http://www.inkscape.org/namespaces/inkscape"
   xmlns:sodipodi="http://sodipodi.sourceforge.net/DTD/sodipodi-0.dtd"
   xmlns="http://www.w3.org/2000/svg"
   xmlns:svg="http://www.w3.org/2000/svg">
  <defs
     id="defs8" />
  <sodipodi:namedview
     id="namedview6"
     pagecolor="#ffffff"
     bordercolor="#666666"
     borderopacity="1.0"
     inkscape:pageshadow="2"
     inkscape:pageopacity="0.0"
     inkscape:pagecheckerboard="0"
     showgrid="false"
     inkscape:zoom="0.99298784"
     inkscape:cx="47.83543"
     inkscape:cy="386.71168"
     inkscape:window-width="1920"
     inkscape:window-height="1115"
     inkscape:window-x="0"
     inkscape:window-y="0"
     inkscape:window-maximized="1"
     inkscape:current-layer="svg4" />
  <path
     id="rect2455"
     style="fill:#000000;stroke-width:1.02683"
     d="M 246.80273 0 C 240.66061 0 234.51853 2.3427969 229.83203 7.0292969 L 143.77148 93.087891 C 128.65248 108.20789 139.36019 134.06055 160.74219 134.06055 L 206.80273 134.06055 L 206.80273 196.93945 C 219.72511 196.31605 232.88855 195.90625 246.40039 195.90625 C 260.19221 195.90625 273.62685 196.3276 286.80273 196.97656 L 286.80273 134.06055 L 332.85938 134.06055 C 354.24138 134.06055 364.95103 108.20689 349.83203 93.087891 L 263.77148 7.0292969 C 259.08548 2.3427969 252.94486 0 246.80273 0 z M 286.80273 196.97656 L 286.80273 436 C 286.80273 442.627 281.42973 448 274.80273 448 L 218.80273 448 C 212.17573 448 206.80273 442.627 206.80273 436 L 206.80273 196.93945 C 89.625984 202.59229 1.7065774e-14 232.76431 0 269.04883 L 0 314.76367 C 0 315.54117 0.11565762 316.31025 0.19726562 317.08203 L 0.19726562 372.01953 C 0.13453562 371.98043 0.062608 371.94543 0 371.90625 L 0 474.76367 C 0 475.54117 0.11565762 476.31025 0.19726562 477.08203 L 0.19726562 532.01953 C 0.13453562 531.98033 0.062608 531.94543 0 531.90625 L 0 634.76367 C 0 675.04968 110.36669 707.90625 246.40039 707.90625 C 382.43409 707.90625 492.80078 675.04968 492.80078 634.76367 L 492.80078 621.60742 L 493.13477 621.60742 L 493.13477 280.31641 L 492.80078 280.31641 L 492.80078 269.04883 C 492.80078 232.84723 403.58533 202.72858 286.80273 196.97656 z " />
</svg>
