<?xml version="1.0" encoding="UTF-8" standalone="no"?>
<svg
   xmlns:dc="http://purl.org/dc/elements/1.1/"
   xmlns:cc="http://creativecommons.org/ns#"
   xmlns:rdf="http://www.w3.org/1999/02/22-rdf-syntax-ns#"
   xmlns:svg="http://www.w3.org/2000/svg"
   xmlns="http://www.w3.org/2000/svg"
   xmlns:sodipodi="http://sodipodi.sourceforge.net/DTD/sodipodi-0.dtd"
   xmlns:inkscape="http://www.inkscape.org/namespaces/inkscape"
   viewBox="0 0 577.8504 512"
   version="1.1"
   id="svg4"
   sodipodi:docname="database-export-gdx.svg"
   inkscape:version="0.92.4 (5da689c313, 2019-01-14)"
   inkscape:export-filename="/home/manuelma/Desktop/export.png"
   inkscape:export-xdpi="38.25"
   inkscape:export-ydpi="38.25"
   width="577.8504"
   height="512">
  <metadata
     id="metadata10">
    <rdf:RDF>
      <cc:Work
         rdf:about="">
        <dc:format>image/svg+xml</dc:format>
        <dc:type
           rdf:resource="http://purl.org/dc/dcmitype/StillImage" />
        <dc:title></dc:title>
      </cc:Work>
    </rdf:RDF>
  </metadata>
  <defs
     id="defs8" />
  <sodipodi:namedview
     pagecolor="#ffffff"
     bordercolor="#666666"
     borderopacity="1"
     objecttolerance="10"
     gridtolerance="10"
     guidetolerance="10"
     inkscape:pageopacity="0"
     inkscape:pageshadow="2"
     inkscape:window-width="1920"
     inkscape:window-height="1017"
     id="namedview6"
     showgrid="false"
     inkscape:zoom="0.23046875"
     inkscape:cx="-676.28967"
     inkscape:cy="766.0944"
     inkscape:window-x="-8"
     inkscape:window-y="-8"
     inkscape:window-maximized="1"
     inkscape:current-layer="svg4"
     inkscape:snap-page="true"
     inkscape:snap-nodes="false"
     inkscape:snap-others="false"
     inkscape:snap-bbox="true"
     inkscape:bbox-nodes="true" />
  <path
     style="stroke-width:0.54729897"
     d="M 228.78573,0 C 166.74625,0 116.41279,19.618115 116.41279,43.672212 v 27.295569 c 0,24.054098 50.33346,43.672209 112.37294,43.672209 62.03948,0 112.37294,-19.618111 112.37294,-43.672209 V 43.672212 C 341.15867,19.618115 290.82521,0 228.78573,0 Z M 116.41279,105.08666 v 156.94778 c 0,24.0541 50.33346,43.67222 112.37294,43.67222 62.03948,0 112.37294,-19.61812 112.37294,-43.67222 V 210.17332 H 241.7408 c -5.25433,0 -9.55332,-4.29899 -9.55332,-9.55333 v -19.10666 c 0,-5.25434 4.29899,-9.55334 9.55332,-9.55334 h 99.41787 v -66.87333 c -2.44539,1.90533 -4.95562,3.70423 -7.51484,5.41923 -25.13757,16.05555 -65.05523,23.58247 -104.8581,23.58247 -10.90517,0 -21.81835,-0.56746 -32.43491,-1.71779 -28.65982,-5.04444 -56.36619,-14.7145 -79.93803,-27.28391 z m 224.74588,66.87333 v 38.21333 h 43.82265 v 38.87105 c 0,8.53832 10.32978,12.77689 16.36032,6.74635 l 57.14041,-57.55906 c 3.94075,-3.94075 3.94075,-10.32954 0,-14.33 l -57.08094,-57.61854 c -1.88454,-1.88455 -4.18869,-2.76589 -6.46645,-2.82682 -5.01109,-0.13406 -9.89386,3.70425 -9.89386,9.57432 v 38.92937 z"
     id="path2"
     inkscape:connector-curvature="0" />
  <text
     xml:space="preserve"
     style="font-style:normal;font-variant:normal;font-weight:bold;font-stretch:normal;font-size:246.70370483px;line-height:1.25;font-family:sans-serif;-inkscape-font-specification:'sans-serif, Bold';font-variant-ligatures:normal;font-variant-caps:normal;font-variant-numeric:normal;font-feature-settings:normal;text-align:start;letter-spacing:0px;word-spacing:0px;writing-mode:lr-tb;text-anchor:start;fill:#000000;fill-opacity:1;stroke:none;stroke-width:18.50277901;"
     x="-12.407523"
     y="508.26572"
     id="text4534"><tspan
       sodipodi:role="line"
       id="tspan4532"
       x="-12.407523"
       y="508.26572"
       style="fill:#000000;fill-opacity:1;stroke-width:18.50277901;">GDX</tspan></text>
</svg>
