<?xml version="1.0" encoding="UTF-8" standalone="no"?>
<svg
   xmlns:dc="http://purl.org/dc/elements/1.1/"
   xmlns:cc="http://creativecommons.org/ns#"
   xmlns:rdf="http://www.w3.org/1999/02/22-rdf-syntax-ns#"
   xmlns:svg="http://www.w3.org/2000/svg"
   xmlns="http://www.w3.org/2000/svg"
   xmlns:sodipodi="http://sodipodi.sourceforge.net/DTD/sodipodi-0.dtd"
   xmlns:inkscape="http://www.inkscape.org/namespaces/inkscape"
   viewBox="0 0 576 512"
   version="1.1"
   id="svg4"
   sodipodi:docname="database-edit.svg"
   inkscape:version="0.92.5 (2060ec1f9f, 2020-04-08)">
  <metadata
     id="metadata10">
    <rdf:RDF>
      <cc:Work
         rdf:about="">
        <dc:format>image/svg+xml</dc:format>
        <dc:type
           rdf:resource="http://purl.org/dc/dcmitype/StillImage" />
        <dc:title></dc:title>
      </cc:Work>
    </rdf:RDF>
  </metadata>
  <defs
     id="defs8" />
  <sodipodi:namedview
     pagecolor="#ffffff"
     bordercolor="#666666"
     borderopacity="1"
     objecttolerance="10"
     gridtolerance="10"
     guidetolerance="10"
     inkscape:pageopacity="0"
     inkscape:pageshadow="2"
     inkscape:window-width="1920"
     inkscape:window-height="1124"
     id="namedview6"
     showgrid="false"
     inkscape:zoom="0.4609375"
     inkscape:cx="547.33499"
     inkscape:cy="78.801767"
     inkscape:window-x="0"
     inkscape:window-y="0"
     inkscape:window-maximized="1"
     inkscape:current-layer="svg4" />
  <path
     d="m 402.6,83.2 90.2,90.2 c 3.8,3.8 3.8,10 0,13.8 l -218.4,218.4 -92.8,10.3 c -12.4,1.4 -22.9,-9.1 -21.5,-21.5 L 170.4,301.6 388.8,83.2 c 3.8,-3.8 10,-3.8 13.8,0 z m 162,-22.9 -48.8,-48.8 c -15.2,-15.2 -39.9,-15.2 -55.2,0 l -35.4,35.4 c -3.8,3.8 -3.8,10 0,13.8 l 90.2,90.2 c 3.8,3.8 10,3.8 13.8,0 l 35.4,-35.4 c 15.2,-15.3 15.2,-40 0,-55.2 z"
     id="path2"
     inkscape:connector-curvature="0"
     sodipodi:nodetypes="sssccccsssscsssscs"
     style="fill:#0000ff" />
  <path
     d="M 225.86523 6.1699219 C 102.19823 6.1699219 1.8652344 39.0265 1.8652344 79.3125 L 1.8652344 125.02734 C 1.8652344 165.31334 102.19823 198.16992 225.86523 198.16992 C 227.0104 198.16992 228.1382 198.14624 229.2793 198.14062 L 395.73438 31.6875 C 354.64748 16.080846 293.77838 6.1699219 225.86523 6.1699219 z M 1.8652344 182.16992 L 1.8652344 285.02734 C 1.8652344 315.12438 57.87544 341.06807 137.76758 352.26953 L 145.58398 281.83594 L 197.24219 230.17773 C 119.37449 227.16043 44.752018 211.70544 1.8652344 182.16992 z M 449.86523 273.37695 L 387.69141 335.55078 C 426.1979 322.40296 449.86523 304.59165 449.86523 285.02734 L 449.86523 273.37695 z M 1.8652344 342.16992 L 1.8652344 445.02734 C 1.8652344 485.31334 102.19823 518.16992 225.86523 518.16992 C 349.53223 518.16992 449.86523 485.31334 449.86523 445.02734 L 449.86523 342.16992 C 423.69381 360.19343 385.69271 372.96699 342.36133 380.88086 L 293.49609 429.74609 L 161.51367 444.39648 C 143.87809 446.38759 128.94444 431.45395 130.93555 413.81836 L 134.15625 384.80664 C 80.632357 377.5587 32.923242 363.55913 1.8652344 342.16992 z "
     id="path2-3" />
</svg>
