<?xml version="1.0" standalone="no"?>
<!DOCTYPE svg PUBLIC "-//W3C//DTD SVG 20010904//EN"
 "http://www.w3.org/TR/2001/REC-SVG-20010904/DTD/svg10.dtd">
<svg version="1.0" xmlns="http://www.w3.org/2000/svg"
 width="512.000000pt" height="512.000000pt" viewBox="0 0 512.000000 512.000000"
 preserveAspectRatio="xMidYMid meet">

<g transform="translate(0.000000,512.000000) scale(0.100000,-0.100000)"
fill="#000000" stroke="none">
<path d="M1980 4373 c-155 -77 -204 -217 -136 -385 l23 -57 -27 -26 -28 -27
-26 114 c-14 62 -34 149 -44 193 l-18 80 -69 3 -70 3 -75 -63 c-41 -35 -115
-105 -163 -155 l-89 -91 18 -28 19 -27 -32 6 c-26 5 -49 -5 -164 -79 -73 -46
-136 -88 -140 -92 -4 -4 6 -36 22 -72 26 -56 36 -69 80 -94 41 -23 50 -32 46
-50 -3 -11 -15 -64 -27 -118 l-22 -96 -115 -32 c-63 -17 -147 -39 -186 -50
-40 -10 -79 -21 -87 -25 -8 -4 -86 -113 -173 -243 -87 -131 -235 -351 -330
-490 -156 -231 -170 -255 -161 -279 5 -15 20 -33 34 -40 14 -8 159 -59 322
-114 l297 -101 5 -61 c3 -34 8 -250 12 -480 6 -366 8 -420 23 -437 21 -24
1811 -644 1861 -644 20 0 424 135 944 314 687 238 911 319 921 335 10 15 15
135 22 492 4 259 11 474 14 477 3 3 145 53 315 111 308 105 344 122 344 164 0
14 -621 944 -660 988 -6 7 -23 16 -38 19 -15 3 -90 23 -166 43 l-140 38 -27
107 c-46 176 -110 283 -182 309 l-29 9 32 34 32 33 -53 60 c-29 34 -58 61 -64
61 -5 0 -82 11 -170 25 -88 13 -177 25 -197 25 -42 0 -44 -3 -53 -101 l-7 -67
71 -7 c39 -4 71 -10 71 -14 0 -8 -93 -101 -102 -101 -4 0 -12 17 -19 38 -24
73 -72 132 -134 165 -29 15 -65 22 -127 25 -49 2 -88 5 -88 7 0 1 40 94 89
206 l88 204 -69 36 -70 35 -172 -42 c-146 -36 -236 -62 -236 -67 0 -1 9 -35
19 -74 11 -40 17 -73 14 -73 -3 0 -23 18 -45 40 -65 65 -154 82 -278 55 -21
-5 -37 5 -94 61 -121 116 -224 143 -336 87z m198 -32 c49 -26 84 -57 126 -110
l34 -44 -35 -46 c-20 -25 -38 -47 -42 -49 -4 -1 -14 11 -24 27 -32 54 -108
130 -141 141 -73 24 -144 -40 -133 -121 3 -21 17 -63 31 -95 15 -31 25 -58 24
-60 -2 -1 -30 -6 -63 -9 l-60 -7 -17 48 c-52 147 -20 242 106 315 63 36 137
39 194 10z m892 -51 c34 -18 38 -23 31 -43 -12 -29 -210 -483 -247 -564 -29
-65 -52 -85 -39 -35 16 62 25 142 25 215 0 75 3 85 61 210 33 73 63 137 65
144 4 7 -22 3 -68 -12 -130 -40 -126 -40 -137 2 -6 20 -9 38 -8 40 6 6 233 61
255 62 12 1 40 -8 62 -19z m-1367 -82 c3 -13 22 -99 42 -191 l37 -169 -38 -39
c-21 -21 -40 -37 -42 -34 -3 2 -22 84 -43 181 -21 97 -39 177 -41 179 -2 2
-23 -22 -48 -53 -25 -31 -52 -57 -59 -57 -8 0 -23 12 -35 28 l-20 27 74 75
c71 72 76 75 121 75 40 0 48 -3 52 -22z m873 -19 c94 -24 144 -114 144 -259 0
-190 -70 -385 -146 -404 -15 -4 -46 -16 -68 -27 -50 -24 -109 -24 -161 0 -85
39 -109 95 -109 251 2 323 132 491 340 439z m-372 -95 l37 -55 -20 -82 c-11
-45 -22 -91 -24 -102 -3 -11 -5 -3 -6 18 -1 32 -6 41 -35 58 -65 38 -100 171
-54 203 41 29 62 20 102 -40z m665 9 c-42 -95 -48 -108 -49 -96 0 6 -12 25
-26 42 -14 17 -22 31 -18 31 4 0 -1 9 -10 19 -17 19 -17 20 26 31 23 6 48 13
53 15 6 2 18 4 27 4 16 1 15 -3 -3 -46z m-1405 -225 c7 -31 0 -34 -28 -13 -20
15 -20 15 0 29 10 8 19 14 20 13 1 -1 4 -14 8 -29z m2135 13 c122 -18 125 -19
159 -56 l34 -37 -33 -34 c-30 -31 -38 -34 -94 -34 -53 0 -68 -4 -102 -29 -22
-16 -51 -43 -63 -61 -25 -35 -50 -110 -50 -150 0 -17 -13 -39 -41 -65 -37 -37
-40 -38 -35 -15 3 14 7 54 11 90 l5 65 127 121 126 121 -98 11 c-53 6 -99 13
-101 15 -8 8 10 77 20 77 6 0 67 -9 135 -19z m-1449 -370 l0 -350 -46 -7 c-34
-5 -49 -3 -56 7 -6 9 -8 125 -5 301 l5 287 -57 -67 c-83 -96 -83 -97 -111 -67
l-24 26 101 101 c89 89 107 102 145 108 24 4 44 8 46 9 1 0 2 -156 2 -348z
m-701 270 c13 -9 -11 -130 -121 -615 l-20 -88 -51 7 c-29 3 -53 7 -54 8 -2 3
99 459 120 539 l15 57 -78 -55 c-43 -29 -82 -54 -88 -54 -14 0 -37 59 -26 69
5 5 56 38 114 75 105 66 152 80 189 57z m1738 -39 c45 -24 84 -68 107 -123
l15 -36 -54 1 c-50 1 -56 3 -66 29 -18 43 -56 67 -104 67 -70 0 -89 -32 -121
-197 -2 -12 -13 -25 -24 -28 -16 -5 -20 -15 -20 -56 l0 -49 -35 39 c-40 44
-43 68 -21 172 23 107 65 172 126 198 39 17 149 7 197 -17z m-1675 -289 c-30
-35 -78 -60 -91 -47 -4 4 55 285 66 314 3 8 18 -39 33 -105 l26 -120 -34 -42z
m2434 176 c39 -38 87 -139 115 -245 30 -112 32 -273 4 -329 -18 -37 -28 -43
-109 -73 l-89 -33 -24 23 c-56 52 -109 181 -138 331 -27 144 -16 229 41 295
67 78 139 90 200 31z m-812 -4 c19 -20 30 -55 19 -65 -4 -5 -20 -6 -35 -3 -28
5 -36 30 -22 67 8 20 18 20 38 1z m-1343 -63 c-38 -4 -46 2 -55 40 l-6 26 48
-31 48 -32 -35 -3z m994 -151 c22 -10 55 -35 74 -56 66 -76 77 -145 37 -231
-22 -47 -94 -139 -102 -131 -2 1 3 24 11 50 13 45 13 47 -8 58 -12 7 -24 13
-25 15 -2 1 6 16 18 32 12 16 24 47 27 70 5 36 2 45 -26 73 -29 29 -36 31 -81
27 -84 -8 -289 -153 -350 -246 -20 -32 -42 -52 -64 -60 l-34 -12 30 -76 c16
-42 27 -78 25 -81 -3 -2 -19 15 -36 39 -79 108 -61 207 62 335 63 66 182 153
244 180 86 36 141 40 198 14z m498 9 c54 -1 54 3 -12 -337 l-63 -319 -59 9
c-53 9 -58 12 -54 31 6 25 95 469 102 509 l6 29 -39 -25 c-48 -30 -145 -80
-148 -75 -27 42 -37 60 -34 63 14 14 256 122 266 119 8 -2 23 -4 35 -4z
m-1487 -59 c87 -40 151 -155 180 -327 19 -110 13 -181 -19 -238 -33 -58 -45
-63 -117 -41 l-62 19 35 18 c61 31 72 113 37 272 -35 159 -87 236 -158 236
-35 0 -82 -28 -92 -56 -27 -69 10 -307 60 -391 12 -20 19 -37 17 -39 -2 -2
-34 7 -72 19 -62 20 -70 25 -86 62 -41 94 -61 268 -38 348 14 52 62 103 112
121 60 21 153 20 203 -3z m1234 -206 c16 -8 38 -15 48 -15 18 0 19 -4 12 -36
-11 -46 -13 -48 -52 -40 -52 10 -101 44 -93 64 4 9 10 39 13 66 l5 49 19 -36
c10 -20 32 -43 48 -52z m-429 -96 c19 -7 38 -15 42 -19 6 -5 -117 -492 -129
-509 -4 -5 -104 30 -104 37 0 11 97 354 109 385 6 15 8 27 6 27 -3 0 -36 -15
-73 -34 -106 -53 -108 -53 -123 -9 -6 20 -8 39 -3 41 5 1 56 23 114 47 120 50
116 49 161 34z m-1006 -289 c472 -159 859 -290 860 -292 4 -5 -552 -822 -562
-825 -4 -2 -393 127 -863 286 -574 194 -854 294 -852 302 5 18 546 818 554
819 3 0 392 -130 863 -290z m3072 -114 c149 -221 273 -408 275 -415 2 -8 -278
-108 -852 -302 -470 -159 -859 -288 -863 -286 -10 3 -566 820 -562 825 4 5
1709 581 1720 581 6 0 132 -181 282 -403z m-2217 205 c0 -29 -21 -61 -40 -61
-25 0 -80 27 -80 39 0 4 21 12 48 18 64 14 72 14 72 4z m1870 -1019 c0 -25 -6
-30 -47 -43 -40 -12 -49 -19 -51 -42 -4 -32 -6 -31 47 -12 l41 14 0 -28 c0
-25 -5 -30 -45 -41 -42 -12 -45 -15 -45 -46 l0 -33 41 14 c58 21 71 19 67 -7
-2 -19 -18 -28 -78 -50 -41 -15 -78 -27 -82 -27 -5 -1 -8 61 -8 137 l0 138 78
26 c42 14 78 27 80 27 1 1 2 -12 2 -27z m-222 -84 c-2 -17 -14 -26 -50 -36
-51 -14 -97 -59 -99 -95 -3 -61 10 -87 46 -87 40 0 55 11 55 40 0 23 -4 27
-20 23 -16 -4 -20 0 -20 20 0 21 8 28 47 41 26 9 48 16 50 16 2 0 3 -34 3 -75
l0 -76 -52 -24 c-63 -29 -117 -32 -148 -7 -33 27 -39 106 -12 158 36 71 110
123 175 124 24 0 28 -4 25 -22z m-2873 -39 c67 -25 123 -71 141 -116 21 -50
18 -116 -8 -148 -19 -25 -26 -27 -77 -23 -31 3 -73 12 -93 21 l-38 16 0 135
c0 81 4 136 10 136 5 0 35 -9 65 -21z m2611 -141 c20 -62 39 -118 41 -124 2
-7 -10 -17 -28 -23 -33 -12 -48 -4 -49 26 0 20 -16 23 -49 12 -24 -8 -33 -20
-41 -49 -8 -29 -17 -41 -40 -49 -17 -5 -30 -7 -30 -3 0 4 17 72 38 151 38 144
39 145 73 157 19 7 37 13 41 13 3 1 23 -50 44 -111z m-2310 36 c25 -6 25 -7
79 -207 15 -54 24 -101 22 -104 -3 -3 -18 1 -33 9 -20 9 -31 24 -37 50 -7 28
-16 39 -39 47 -43 15 -46 15 -53 -19 -8 -35 -4 -34 -43 -17 l-31 13 41 123
c31 96 43 121 55 117 8 -3 25 -9 39 -12z m2069 -26 c-63 -103 -63 -99 -15
-167 24 -34 41 -63 39 -65 -2 -2 -18 -8 -35 -13 -29 -10 -32 -9 -58 33 -15 24
-31 44 -36 44 -12 0 -20 -28 -20 -75 0 -41 -12 -54 -52 -55 -5 0 -8 61 -8 135
l0 135 26 10 c14 6 27 10 30 10 2 0 4 -26 4 -57 l1 -58 35 68 c26 51 43 72 67
82 48 21 50 19 22 -27z m-1867 -48 c82 -29 92 -35 92 -57 0 -23 -3 -25 -35
-19 l-35 7 0 -106 c0 -60 -4 -105 -10 -105 -5 0 -21 5 -35 12 -25 11 -25 13
-25 119 l0 109 -35 14 c-28 12 -35 21 -35 42 0 17 4 24 13 22 6 -3 54 -20 105
-38z m1640 -27 c-2 -22 -10 -29 -35 -34 -18 -3 -44 -14 -57 -23 -32 -20 -53
-87 -40 -124 8 -23 15 -27 49 -26 22 1 50 5 63 9 19 6 22 4 22 -18 0 -51 -139
-78 -180 -35 -20 21 -24 44 -20 103 6 83 97 172 178 174 20 1 23 -3 20 -26z
m-1440 -44 c27 -9 32 -18 52 -92 12 -45 30 -112 40 -149 19 -70 18 -74 -23
-59 -17 7 -27 21 -33 47 -8 31 -16 39 -46 50 -36 12 -37 12 -47 -18 -9 -25
-14 -28 -33 -23 -13 4 -26 10 -30 14 -10 9 65 241 78 241 6 0 25 -5 42 -11z
m1186 -145 c21 -64 34 -120 30 -124 -5 -4 -19 -11 -32 -15 -19 -5 -24 -2 -33
23 -10 30 -11 30 -47 18 -30 -11 -38 -19 -46 -50 -7 -34 -33 -56 -65 -56 -4 0
10 67 32 150 36 135 43 150 66 159 52 19 55 17 95 -105z m-210 30 c22 -21 20
-72 -3 -110 -11 -17 -40 -41 -65 -54 -45 -21 -46 -22 -46 -71 0 -27 -3 -49 -7
-49 -5 0 -18 -3 -30 -6 l-23 -6 0 135 0 136 53 20 c64 24 101 26 121 5z"/>
<path d="M2437 4081 c-47 -41 -76 -144 -93 -326 -11 -123 26 -195 101 -195 73
0 119 73 146 230 30 173 22 260 -28 300 -38 29 -85 26 -126 -9z m132 -148 l-1
-58 -14 45 c-15 46 -13 70 6 70 6 0 10 -24 9 -57z"/>
<path d="M3807 3562 c-21 -23 -37 -67 -37 -103 0 -84 63 -307 106 -371 30 -47
68 -51 105 -12 21 23 24 34 23 102 -1 118 -65 333 -113 381 -26 26 -62 27 -84
3z"/>
<path d="M1210 1595 c0 -84 1 -86 27 -96 83 -31 108 91 32 155 -52 44 -59 37
-59 -59z"/>
<path d="M3747 1593 c-4 -23 -10 -48 -13 -56 -4 -12 0 -14 15 -10 30 8 32 15
18 64 l-13 44 -7 -42z"/>
<path d="M1496 1526 c-8 -41 -2 -56 21 -56 12 0 14 7 8 38 -9 52 -21 60 -29
18z"/>
<path d="M1902 1380 c-6 -25 -10 -45 -9 -46 1 -1 13 -5 26 -9 22 -7 23 -5 16
27 -16 70 -21 74 -33 28z"/>
<path d="M3027 1365 c-3 -11 -9 -35 -12 -53 -7 -32 -6 -34 16 -27 13 4 25 8
26 9 1 1 -4 22 -11 46 -10 35 -14 40 -19 25z"/>
<path d="M2797 1313 c-4 -3 -7 -21 -7 -40 0 -39 19 -44 50 -13 30 30 26 60 -8
60 -16 0 -32 -3 -35 -7z"/>
</g>
</svg>
