<?xml version="1.0" encoding="UTF-8" standalone="no"?>
<!-- Created with Inkscape (http://www.inkscape.org/) -->

<svg
   xmlns:dc="http://purl.org/dc/elements/1.1/"
   xmlns:cc="http://creativecommons.org/ns#"
   xmlns:rdf="http://www.w3.org/1999/02/22-rdf-syntax-ns#"
   xmlns:svg="http://www.w3.org/2000/svg"
   xmlns="http://www.w3.org/2000/svg"
   xmlns:sodipodi="http://sodipodi.sourceforge.net/DTD/sodipodi-0.dtd"
   xmlns:inkscape="http://www.inkscape.org/namespaces/inkscape"
   width="16"
   height="16"
   viewBox="0 0 4.2333333 4.2333333"
   version="1.1"
   id="svg8"
   inkscape:version="0.92.4 (5da689c313, 2019-01-14)"
   sodipodi:docname="double-at.svg">
  <defs
     id="defs2" />
  <sodipodi:namedview
     id="base"
     pagecolor="#ffffff"
     bordercolor="#666666"
     borderopacity="1.0"
     inkscape:pageopacity="0.0"
     inkscape:pageshadow="2"
     inkscape:zoom="22.4"
     inkscape:cx="9.4167697"
     inkscape:cy="4.8529412"
     inkscape:document-units="mm"
     inkscape:current-layer="layer1"
     showgrid="false"
     inkscape:window-width="1920"
     inkscape:window-height="1137"
     inkscape:window-x="-8"
     inkscape:window-y="-8"
     inkscape:window-maximized="1"
     units="px"
     inkscape:snap-page="true" />
  <metadata
     id="metadata5">
    <rdf:RDF>
      <cc:Work
         rdf:about="">
        <dc:format>image/svg+xml</dc:format>
        <dc:type
           rdf:resource="http://purl.org/dc/dcmitype/StillImage" />
        <dc:title></dc:title>
      </cc:Work>
    </rdf:RDF>
  </metadata>
  <g
     inkscape:label="Taso 1"
     inkscape:groupmode="layer"
     id="layer1"
     transform="translate(0,-292.76667)">
    <g
       id="g840"
       transform="matrix(0.01763227,0,0,0.01763227,1.9167329,289.69987)">
      <path
         style="fill:currentColor;stroke-width:0.26458332"
         inkscape:connector-curvature="0"
         d="m -43.089311,191.31786 c -36.263527,0 -65.616669,29.34732 -65.616669,65.61666 0,36.26353 29.347321,65.61667 65.616669,65.61667 12.740746,0 25.225904,-3.74121 35.8266966,-10.64234 3.17633,-2.06771 3.86953,-6.4262 1.46897,-9.35884 l -2.69266,-3.28956 c -2.0296196,-2.47941 -5.6036146,-3.0869 -8.3007776,-1.35705 -7.802562,5.00433 -16.958733,7.71446 -26.302229,7.71446 -26.844096,0 -48.683333,-21.83924 -48.683333,-48.68334 0,-26.84409 21.839237,-48.68333 48.683333,-48.68333 26.495111,0 48.6833386,15.24503 48.6833386,42.33333 0,10.26213 -5.58086198,21.09841 -15.390822,22.14378 -4.5902516,-0.12012 -4.4740996,-3.40175 -3.5655206,-7.94385 l 6.1999806,-32.04369 c 0.7583,-3.91821 -2.2434,-7.55624 -6.2341116,-7.55624 h -11.901223 a 3.5766375,3.5766375 0 0 0 -3.553883,3.17315 l -0.0026,0.0243 c -3.888581,-4.7363 -10.701867,-5.7613 -15.867327,-5.7613 -19.732625,0 -36.467786,16.46608 -36.467786,40.07379 0,17.27809 9.732698,28.01144 25.4,28.01144 7.139517,0 15.178882,-4.13729 19.841369,-10.14227 2.519363,9.02335 10.745523,9.02308 18.708688,9.02308 28.815246,0 39.766616,-18.94734 39.766616,-39.00223 -5e-5,-36.07514 -29.0981324,-59.26666 -65.616719,-59.26666 z m -5.736166,80.5471 c -5.886715,0 -9.543521,-4.13358 -9.543521,-10.78732 0,-11.9044 8.14361,-19.24289 15.512521,-19.24289 5.898091,0 9.419431,4.03252 9.419431,10.78707 0,11.92239 -8.962761,19.24314 -15.388431,19.24314 z"
         id="path825" />
      <path
         id="path836"
         d="m 65.767828,265.40119 c -36.26352,0 -65.61666238,29.34732 -65.61666238,65.61666 0,36.26353 29.34732238,65.61667 65.61666238,65.61667 12.74075,0 25.2259,-3.74121 35.826702,-10.64234 3.17633,-2.06771 3.86953,-6.4262 1.46897,-9.35884 l -2.69266,-3.28956 c -2.029622,-2.47941 -5.603622,-3.0869 -8.300782,-1.35705 -7.80256,5.00433 -16.95873,7.71446 -26.30223,7.71446 -26.84409,0 -48.68333,-21.83924 -48.68333,-48.68334 0,-26.84409 21.83924,-48.68333 48.68333,-48.68333 26.49511,0 48.683342,15.24503 48.683342,42.33333 0,10.26213 -5.58086,21.09841 -15.390822,22.14378 -4.59026,-0.12012 -4.4741,-3.40175 -3.56552,-7.94385 l 6.199982,-32.04369 c 0.7583,-3.91821 -2.243402,-7.55624 -6.234122,-7.55624 h -11.90122 a 3.5766375,3.5766375 0 0 0 -3.55388,3.17315 l -0.003,0.0243 c -3.88858,-4.7363 -10.70187,-5.7613 -15.86733,-5.7613 -19.73262,0 -36.46778,16.46608 -36.46778,40.07379 0,17.27809 9.7327,28.01144 25.4,28.01144 7.13951,0 15.17888,-4.13729 19.84136,-10.14227 2.51937,9.02335 10.74553,9.02308 18.70869,9.02308 28.815252,0 39.766622,-18.94734 39.766622,-39.00223 -5e-5,-36.07514 -29.09813,-59.26666 -65.616722,-59.26666 z m -5.73617,80.5471 c -5.88671,0 -9.54352,-4.13358 -9.54352,-10.78732 0,-11.9044 8.14361,-19.24289 15.51252,-19.24289 5.89809,0 9.41943,4.03252 9.41943,10.78707 0,11.92239 -8.96276,19.24314 -15.38843,19.24314 z"
         inkscape:connector-curvature="0"
         style="fill:currentColor;stroke-width:0.26458332" />
    </g>
  </g>
</svg>
