<?xml version="1.0" encoding="UTF-8" standalone="no"?>
<svg
   xmlns:dc="http://purl.org/dc/elements/1.1/"
   xmlns:cc="http://creativecommons.org/ns#"
   xmlns:rdf="http://www.w3.org/1999/02/22-rdf-syntax-ns#"
   xmlns:svg="http://www.w3.org/2000/svg"
   xmlns="http://www.w3.org/2000/svg"
   xmlns:sodipodi="http://sodipodi.sourceforge.net/DTD/sodipodi-0.dtd"
   xmlns:inkscape="http://www.inkscape.org/namespaces/inkscape"
   viewBox="0 0 512.0014 513.04779"
   version="1.1"
   id="svg4"
   sodipodi:docname="wrench_minus.svg"
   inkscape:version="0.92.3 (2405546, 2018-03-11)"
   width="512.0014"
   height="513.04779">
  <metadata
     id="metadata10">
    <rdf:RDF>
      <cc:Work
         rdf:about="">
        <dc:format>image/svg+xml</dc:format>
        <dc:type
           rdf:resource="http://purl.org/dc/dcmitype/StillImage" />
        <dc:title></dc:title>
      </cc:Work>
    </rdf:RDF>
  </metadata>
  <defs
     id="defs8" />
  <sodipodi:namedview
     pagecolor="#ffffff"
     bordercolor="#666666"
     borderopacity="1"
     objecttolerance="10"
     gridtolerance="10"
     guidetolerance="10"
     inkscape:pageopacity="0"
     inkscape:pageshadow="2"
     inkscape:window-width="1920"
     inkscape:window-height="1132"
     id="namedview6"
     showgrid="false"
     inkscape:zoom="0.23046875"
     inkscape:cx="1237.0518"
     inkscape:cy="282.98958"
     inkscape:window-x="0"
     inkscape:window-y="0"
     inkscape:window-maximized="1"
     inkscape:current-layer="svg4"
     inkscape:measure-start="422.644,175.729"
     inkscape:measure-end="526.373,122.305" />
  <path
     inkscape:connector-curvature="0"
     d="m 507.7325,109.09852 c -2.24,-9.03 -13.54,-12.09 -20.12,-5.51 l -74.36,74.36 -67.88,-11.31 -11.31,-67.88 74.36,-74.36 c 6.62,-6.62 3.43,-17.9000001 -5.66,-20.1600001 -47.38,-11.74 -99.55,0.91 -136.58,37.9300001 -39.64,39.64 -50.55,97.1 -34.05,147.2 l -213.39,213.39 c -24.99,24.99 -24.99,65.51 0,90.5 24.99,24.99 65.51,24.99 90.5,0 l 213.21,-213.21 c 50.12,16.71 107.47,5.68 147.37,-34.22 37.07,-37.07 49.7,-89.32 37.91,-136.73 z m -443.73,362.9 c -13.25,0 -24,-10.75 -24,-24 0,-13.26 10.75,-24 24,-24 13.25,0 24,10.74 24,24 0,13.25 -10.75,24 -24,24 z"
     id="path2-9" />
  <path
     inkscape:connector-curvature="0"
     d="m 492.75251,377.04777 c -192.00002,0 -59.67792,0 -192.00002,0 -8.835,0 -16,7.165 -16,16 v 16 c 0,8.835 7.165,16 16,16 192.00002,0 59.6779,0 192.00002,0 8.835,0 16,-7.165 16,-16 v -16 c 0,-8.835 -7.165,-16 -16,-16 z"
     id="path2"
     style="fill:#ff0000;stroke-width:0.5"
     sodipodi:nodetypes="ccssccssc" />
</svg>
