<?xml version="1.0" encoding="UTF-8"?><svg id="Livello_1" xmlns="http://www.w3.org/2000/svg" width="1185.3994" height="719.1295" xmlns:xlink="http://www.w3.org/1999/xlink" viewBox="0 0 1185.3994 719.1295"><defs><clipPath id="clippath"><path d="m438.4697,442.0799h-221.6226V48.0842s221.6226,0,221.6226,0v393.9957Zm263.0003,0h-221.6226V144.5125s221.6226,0,221.6226,0v297.5674Zm263.0003,0h-221.6226V48.0842s221.6226,0,221.6226,0v393.9957Z" style="fill:none;"/></clipPath></defs><g style="clip-path:url(#clippath);"><rect x="138.7385" width="877.4433" height="584.9622" style="fill:#1b4ac2;"/><polygon points="595.1166 357.6005 328.8739 163.2101 209.226 250.5624 200.6313 238.7832 328.8739 145.1568 595.1166 339.5472 861.3949 145.1568 996.6115 243.8707 988.0168 255.6499 861.3949 163.2101 595.1166 357.6005" style="fill:#9cee82;"/><circle cx="589.6537" cy="341.2468" r="37.4703" style="fill:#a8ea5c;"/><circle cx="858.3453" cy="156.5626" r="37.4703" style="fill:#a8ea5c;"/><circle cx="324.7994" cy="154.1831" r="37.4703" style="fill:#a8ea5c;"/><circle cx="593.1012" cy="341.2468" r="54.1773" style="fill:#9cee82;"/><circle cx="858.3453" cy="156.5626" r="54.1773" style="fill:#9cee82;"/><circle cx="327.6584" cy="156.5626" r="54.1773" style="fill:#9cee82;"/></g><path d="m0,645.3502l23.6299-7.9902c5.1001,18.6992,17.1699,24.3105,28.5596,24.3105,11.73,0,22.1001-5.6113,22.1001-16.3203,0-11.2207-11.2202-14.791-22.4399-18.3594l-11.8999-3.5703c-13.0898-3.9102-35.3594-12.75-35.3594-37.9102,0-23.9688,20.2295-39.0996,45.7295-39.0996,25.1597,0,41.8193,14.791,46.0693,30.9395l-23.1196,9.3496c-4.0801-10.709-11.73-17.3398-23.46-17.3398-11.2197,0-18.6997,5.9512-18.6997,14.1113,0,10.709,12.4097,15.2988,22.9497,18.6992l13.9399,4.4199c12.0698,3.9102,33.1494,10.5391,33.1494,35.6992,0,23.9707-18.8696,42.3301-48.6191,42.3301-25.8398,0-46.2397-13.9395-52.5298-39.2695Z" style="fill:#fff;"/><path d="m118.4888,586.8698h23.4595v14.1113h.3403c8.3296-11.7305,18.3599-16.8301,30.5996-16.8301,25.8398,0,41.3096,22.4395,41.3096,49.8086,0,31.791-20.5698,50.6602-43.0098,50.6602-14.2798,0-23.6294-7.3105-28.8994-15.1309v49.6406h-23.7998v-132.2598Zm47.2593,74.9707c13.9399,0,23.7998-11.5605,23.7998-27.3711,0-16.1484-10.0298-27.5391-23.7998-27.5391s-23.9697,11.3906-23.9697,27.5391,10.2002,27.3711,23.9697,27.3711Z" style="fill:#fff;"/><path d="m243.7759,543.0104c8.3301,0,14.6196,6.6309,14.6196,14.4512,0,8.5-6.2896,15.1289-14.6196,15.1289-8.5,0-14.79-6.6289-14.79-15.1289,0-7.8203,6.29-14.4512,14.79-14.4512Zm-12.0698,43.8594h23.7998v94.8594h-23.7998v-94.8594Z" style="fill:#fff;"/><path d="m278.7949,586.8698h23.4595v13.9414h.3403c6.9697-11.3906,17.8496-16.6602,29.4097-16.6602,17.5098,0,33.1494,11.9004,33.1494,37.7402v59.8379h-23.7998v-49.2988c0-12.5801-3.23-25.5-17.8496-25.5-11.2197,0-20.9097,7.8203-20.9097,25.8398v48.959h-23.7998v-94.8594Z" style="fill:#fff;"/><path d="m381.6445,634.8092c0-29.2383,19.7197-50.6582,47.4297-50.6582,23.6299,0,45.7295,15.6387,45.7295,50.4883v6.4609h-69.3594c2.04,14.2793,12.75,22.0996,25.1597,22.0996,9.6899,0,18.02-5.2695,22.27-15.1289l22.2695,9.0098c-6.29,15.4688-22.2695,27.5391-44.3696,27.5391-28.0493,0-49.1294-19.7207-49.1294-49.8105Zm69.1895-10.0293c-1.7002-14.6191-11.2197-20.2285-21.9297-20.2285-12.2402,0-19.8901,8.3281-22.27,20.2285h44.1997Z" style="fill:#fff;"/><path d="m518.3247,572.4206v-23.2891h104.7188v23.2891h-39.7793v109.3086h-25.1597v-109.3086h-39.7798Z" style="fill:#fff;"/><path d="m611.8257,634.4694c0-29.4082,20.0601-50.3184,48.9595-50.3184s48.96,20.9102,48.96,50.3184c0,29.5801-20.0605,50.1504-48.96,50.1504s-48.9595-20.5703-48.9595-50.1504Zm48.9595,27.3711c14.2803,0,24.1396-11.3906,24.1396-27.3711,0-16.3184-9.8594-27.5391-24.1396-27.5391s-24.3096,11.3906-24.3096,27.5391c0,15.9805,10.0298,27.3711,24.3096,27.3711Z" style="fill:#fff;"/><path d="m721.1338,634.4694c0-29.4082,20.0596-50.3184,48.959-50.3184s48.96,20.9102,48.96,50.3184c0,29.5801-20.0605,50.1504-48.96,50.1504s-48.959-20.5703-48.959-50.1504Zm48.959,27.3711c14.2803,0,24.1396-11.3906,24.1396-27.3711,0-16.3184-9.8594-27.5391-24.1396-27.5391s-24.3096,11.3906-24.3096,27.5391c0,15.9805,10.0303,27.3711,24.3096,27.3711Z" style="fill:#fff;"/><path d="m836.3916,545.7311h23.7998v135.998h-23.7998v-135.998Z" style="fill:#fff;"/><path d="m907.2803,669.1491h-.3398v12.5801h-23.46v-135.998h23.7998v54.7402c7.6504-11.2207,18.1904-16.3203,30.5996-16.3203,25.8398,0,41.3096,22.4395,41.3096,49.9785,0,31.6211-20.5693,50.4902-43.0088,50.4902-13.7705,0-23.6299-6.9707-28.9004-15.4707Zm23.46-7.3086c13.9404,0,23.7998-11.3906,23.7998-27.3711,0-15.8086-9.6895-27.5391-23.7998-27.5391s-23.9697,11.5605-23.9697,27.5391c0,16.1504,10.2002,27.3711,23.9697,27.3711Z" style="fill:#fff;"/><path d="m990.749,634.4694c0-29.4082,20.0596-50.3184,48.959-50.3184s48.96,20.9102,48.96,50.3184c0,29.5801-20.0605,50.1504-48.96,50.1504s-48.959-20.5703-48.959-50.1504Zm48.959,27.3711c14.2803,0,24.1396-11.3906,24.1396-27.3711,0-16.3184-9.8594-27.5391-24.1396-27.5391s-24.3096,11.3906-24.3096,27.5391c0,15.9805,10.0303,27.3711,24.3096,27.3711Z" style="fill:#fff;"/><path d="m1122.1602,633.6198v-.1699l-30.6006-46.5801h27.54l19.21,31.6211h.3398c6.46-10.7109,12.9199-21.0801,19.3799-31.6211h26.8594c-10.1992,15.4707-20.2295,31.1113-30.4297,46.5801v.1699c10.3701,15.9805,20.5703,32.1309,30.9404,48.1094h-27.2002c-6.46-10.5391-12.9199-20.9102-19.5498-31.4492h-.3398l-19.21,31.4492h-27.8799c10.3701-15.9785,20.5703-32.1289,30.9404-48.1094Z" style="fill:#fff;"/></svg>