<?xml version="1.0" encoding="UTF-8" standalone="no"?>
<!-- Created with Inkscape (http://www.inkscape.org/) -->

<svg
   width="24mm"
   height="24mm"
   viewBox="0 0 24 24"
   version="1.1"
   opacity="0.35"
   id="svg1"
   xmlns="http://www.w3.org/2000/svg"
   xmlns:svg="http://www.w3.org/2000/svg">
  <defs
     id="defs1" />
  <g
     id="layer1">
    <path
       d="m 4.4302469,7.3211238 c -1.3535313,0 -2.4508423,1.0973064 -2.4508423,2.4508379 V 14.22803 c 0,1.35353 1.097311,2.450837 2.4508423,2.450837 h 0.8912163 c 1.353536,0 2.4508424,-1.097307 2.4508424,-2.450837 v -0.445613 c 0,-0.612705 -0.5013075,-1.114013 -1.114018,-1.114013 -0.6127106,0 -1.114018,0.501308 -1.114018,1.114013 v 0.445613 c 0,0.122563 -0.1002876,0.222806 -0.2228064,0.222806 H 4.4302469 c -0.1225635,0 -0.2228062,-0.100287 -0.2228062,-0.222806 V 9.7719617 c 0,-0.1225637 0.1002427,-0.2228063 0.2228062,-0.2228063 h 0.8912163 c 0.1225637,0 0.2228064,0.1002426 0.2228064,0.2228063 v 0.4456123 c 0,0.612711 0.5013074,1.114019 1.114018,1.114019 0.6127105,0 1.114018,-0.501308 1.114018,-1.114019 V 9.7719617 c 0,-1.3535315 -1.0973064,-2.4508379 -2.4508424,-2.4508379 z m 7.5753341,0 c -1.598619,0 -2.8964511,1.2978322 -2.8964511,2.8964462 0,1.598614 1.2978321,2.896446 2.8964511,2.896446 0.367646,0 0.668409,0.300773 0.668409,0.668406 0,0.367645 -0.300772,0.668414 -0.668409,0.668414 h -1.782433 c -0.6127106,0 -1.1140181,0.501302 -1.1140181,1.114013 0,0.612711 0.5013075,1.114018 1.1140181,1.114018 h 1.782433 c 1.598614,0 2.896449,-1.297827 2.896449,-2.896445 0,-1.598615 -1.297835,-2.896442 -2.896449,-2.896442 -0.367647,0 -0.668415,-0.300773 -0.668415,-0.66841 0,-0.3676463 0.300773,-0.6684101 0.668415,-0.6684101 h 1.336824 c 0.612706,0 1.114014,-0.5013074 1.114014,-1.114018 0,-0.6127106 -0.501308,-1.1140181 -1.114014,-1.1140181 z m 5.347288,0 c -0.612707,0 -1.114019,0.5013075 -1.114019,1.1140181 v 1.7601471 c 0,1.977381 0.584862,3.915768 1.682168,5.558944 l 0.284065,0.428905 c 0.206101,0.311912 0.557013,0.495739 0.92464,0.495739 0.367601,0 0.718541,-0.183823 0.924635,-0.495739 l 0.284066,-0.428905 c 1.097311,-1.648745 1.682171,-3.581563 1.682171,-5.558944 V 8.4351419 c 0,-0.6127106 -0.501312,-1.1140181 -1.114022,-1.1140181 -0.612711,0 -1.114018,0.5013075 -1.114018,1.1140181 v 1.7601471 c 0,1.091738 -0.228376,2.166764 -0.668409,3.158236 C 18.684102,12.362053 18.45573,11.287027 18.45573,10.195289 V 8.4351419 c 0,-0.6127106 -0.501306,-1.1140181 -1.114018,-1.1140181 z"
       style="stroke-width:0.0557006"
       id="path1" />
    <path
       id="rect3"
       style="fill:none;fill-opacity:0.583166;stroke:black;stroke-width:2;stroke-linecap:round;stroke-linejoin:round"
       d="M 1,4 C 1,2.338 2.338,1 4,1 h 16 c 1.662,0 3,1.338 3,3 m 0,16 c 0,1.662 -1.338,3 -3,3 H 4 C 2.338,23 1,21.662 1,20" />
  </g>
</svg>
